<?xml version="1.0" encoding="UTF-8" standalone="no"?>
<svg
   width="180.2182"
   height="20.000401"
   version="1.1"
   id="svg98"
   sodipodi:docname="galaxy.svg"
   inkscape:version="1.2.1 (9c6d41e410, 2022-07-14, custom)"
   xmlns:inkscape="http://www.inkscape.org/namespaces/inkscape"
   xmlns:sodipodi="http://sodipodi.sourceforge.net/DTD/sodipodi-0.dtd"
   xmlns="http://www.w3.org/2000/svg"
   xmlns:svg="http://www.w3.org/2000/svg">
  <sodipodi:namedview
     id="namedview100"
     pagecolor="#505050"
     bordercolor="#ffffff"
     borderopacity="1"
     inkscape:showpageshadow="0"
     inkscape:pageopacity="0"
     inkscape:pagecheckerboard="1"
     inkscape:deskcolor="#505050"
     showgrid="false"
     inkscape:zoom="7.5018208"
     inkscape:cx="53.187088"
     inkscape:cy="12.996845"
     inkscape:window-width="3832"
     inkscape:window-height="2042"
     inkscape:window-x="0"
     inkscape:window-y="114"
     inkscape:window-maximized="1"
     inkscape:current-layer="svg98" />
  <style
     id="style2" />
  <defs
     id="defs15">
    <linearGradient
       id="linearGradient891"
       x1="170.83"
       x2="170.83"
       y1="-5.6998"
       y2="-16.76"
       gradientTransform="translate(0,20)"
       gradientUnits="userSpaceOnUse">
      <stop
         stop-color="#480900"
         stop-opacity=".4549"
         offset="0"
         id="stop4" />
      <stop
         stop-color="#d2d2d2"
         stop-opacity="0"
         offset="1"
         id="stop6" />
    </linearGradient>
    <filter
       id="filter923"
       x="-0.0025819918"
       y="-0.018605452"
       width="1.005164"
       height="1.0372109"
       color-interpolation-filters="sRGB">
      <feGaussianBlur
         stdDeviation="0.082526871"
         id="feGaussianBlur9" />
    </filter>
    <filter
       id="filter927"
       x="-0.0025126927"
       y="-0.018604872"
       width="1.0050254"
       height="1.0372097"
       color-interpolation-filters="sRGB">
      <feGaussianBlur
         stdDeviation="0.082526871"
         id="feGaussianBlur12" />
    </filter>
  </defs>
  <clipPath
     id="a">
    <rect
       width="102"
       height="20"
       rx="3"
       fill="#ffffff"
       id="rect17"
       x="0"
       y="0" />
  </clipPath>
  <g
     id="g26"
     transform="translate(0,4e-4)">
    <path
       d="M 176.84,0 H 84.28 v 20 h 92.56 c 1.8715,0 3.3782,-1.5067 3.3782,-3.3782 V 3.3778 c 0,-1.8715 -1.5067,-3.3782 -3.3782,-3.3782 z"
       fill="#ff6600"
       style="paint-order:stroke fill markers"
       id="path20"
       sodipodi:nodetypes="cccssscc" />
    <path
       d="m 3.3782,0 h 84.558 V 20 H 3.3782 C 1.5067,20 0,18.4933 0,16.6218 V 3.3778 C 0,1.5063 1.5067,-4e-4 3.3782,-4e-4 Z"
       fill="#4d4d4d"
       style="paint-order:stroke fill markers"
       id="path22" />
    <rect
       x="4.6019999e-15"
       width="180.17"
       height="20"
       ry="3.3782001"
       fill="url(#linearGradient891)"
       style="fill:url(#linearGradient891);paint-order:stroke fill markers"
       id="rect24"
       y="0" />
  </g>
  <g
     id="g96"
     transform="translate(0,4e-4)">
    <g
       transform="translate(0,0.81938)"
       fill="#010101"
       fill-opacity="0.66791"
       filter="url(#filter927)"
       stroke-width="0.1"
       aria-label="ansible-galaxy"
       id="g56">
      <path
         d="m 10.162,11.088 q -1.1978,0 -1.6597,0.27393 -0.46191,0.27393 -0.46191,0.93457 0,0.52637 0.34375,0.83789 0.34912,0.30615 0.94531,0.30615 0.82178,0 1.3159,-0.58008 0.49951,-0.58545 0.49951,-1.5522 v -0.22022 z m 1.9712,-0.4082 v 3.4321 h -0.98828 v -0.91309 q -0.33838,0.54785 -0.84326,0.81104 -0.50488,0.25781 -1.2354,0.25781 -0.92383,0 -1.4717,-0.51562 -0.54248,-0.521 -0.54248,-1.3911 0,-1.0151 0.67676,-1.5308 0.68213,-0.51562 2.0303,-0.51562 h 1.3857 v -0.09668 q 0,-0.68213 -0.45117,-1.0527 -0.4458,-0.37598 -1.2568,-0.37598 -0.51562,0 -1.0044,0.12354 Q 7.9437,9.03624 7.49253,9.28331 V 8.37022 Q 8.03501,8.16075 8.54523,8.0587 9.05548,7.95128 9.53888,7.95128 q 1.3052,0 1.9497,0.67676 0.6445,0.67676 0.64453,2.0518 z"
         style="font-variant-ligatures:normal;font-variant-caps:normal;font-variant-numeric:normal;font-feature-settings:normal"
         id="path28" />
      <path
         d="m 19.169,10.481 v 3.6309 h -0.98828 v -3.5986 q 0,-0.854 -0.33301,-1.2783 -0.33301,-0.4243 -0.99902,-0.42432 -0.80029,0 -1.2622,0.51025 -0.46191,0.51025 -0.46191,1.3911 v 3.3999 h -0.99365 v -6.0156 h 0.99365 V 9.0309 q 0.35449,-0.54248 0.83252,-0.81104 0.4834,-0.26855 1.1118,-0.26855 1.0366,0 1.5684,0.64453 0.53174,0.63916 0.53174,1.8853 z"
         style="font-variant-ligatures:normal;font-variant-caps:normal;font-variant-numeric:normal;font-feature-settings:normal"
         id="path30" />
      <path
         d="M 24.975,8.2737 V 9.20827 Q 24.55606,8.99343 24.10488,8.886 23.6537,8.77857 23.17031,8.77858 q -0.73584,0 -1.1064,0.22559 -0.36523,0.22559 -0.36523,0.67676 0,0.34375 0.26318,0.54248 0.26318,0.19336 1.0581,0.3706 l 0.33838,0.0752 q 1.0527,0.22559 1.4932,0.63916 0.4458,0.4082 0.4458,1.144 0,0.83789 -0.66602,1.3267 -0.66064,0.48877 -1.8208,0.48877 -0.4834,0 -1.0098,-0.09668 -0.521,-0.09131 -1.1011,-0.2793 v -1.0205 q 0.54785,0.28467 1.0796,0.42969 0.53174,0.13965 1.0527,0.13965 0.69824,0 1.0742,-0.23633 0.37598,-0.2417 0.37598,-0.67676 0,-0.40283 -0.27393,-0.61768 -0.26855,-0.21484 -1.187,-0.41357 l -0.34375,-0.08057 q -0.91846,-0.19336 -1.3267,-0.59082 -0.4082,-0.40283 -0.4082,-1.1011 0,-0.84863 0.60156,-1.3105 0.60156,-0.46191 1.708,-0.46191 0.54785,0 1.0312,0.080566 0.4834,0.080566 0.8916,0.2417 z"
         style="font-variant-ligatures:normal;font-variant-caps:normal;font-variant-numeric:normal;font-feature-settings:normal"
         id="path32" />
      <path
         d="m 26.871,8.0965 h 0.98828 v 6.0156 H 26.871 Z m 0,-2.3418 h 0.98828 V 7.0062 H 26.871 Z"
         style="font-variant-ligatures:normal;font-variant-caps:normal;font-variant-numeric:normal;font-feature-settings:normal"
         id="path34" />
      <path
         d="m 34.246,11.11 q 0,-1.0903 -0.45117,-1.708 -0.4458,-0.62305 -1.23,-0.62305 -0.78418,0 -1.2354,0.62305 -0.4458,0.61768 -0.4458,1.708 0,1.09032 0.4458,1.7134 0.45117,0.61768 1.2354,0.61768 0.78418,0 1.23,-0.61768 Q 34.246,12.20035 34.246,11.11 Z M 30.8837,9.0099 q 0.31152,-0.53711 0.78418,-0.79492 0.47803,-0.26318 1.1387,-0.26318 1.0957,0 1.7778,0.87012 0.6875,0.87012 0.6875,2.2881 0,1.418 -0.6875,2.2881 -0.68213,0.87012 -1.7778,0.87012 -0.66064,0 -1.1387,-0.25781 -0.47266,-0.26318 -0.78418,-0.80029 v 0.90234 h -0.99365 v -8.3574 h 0.99365 z"
         style="font-variant-ligatures:normal;font-variant-caps:normal;font-variant-numeric:normal;font-feature-settings:normal"
         id="path36" />
      <path
         d="m 36.91,5.7547 h 0.98828 v 8.3574 H 36.91 Z"
         style="font-variant-ligatures:normal;font-variant-caps:normal;font-variant-numeric:normal;font-feature-settings:normal"
         id="path38" />
      <path
         d="m 45.111,10.857 v 0.4834 h -4.5439 q 0.06445,1.0205 0.6123,1.5576 0.55322,0.53174 1.5361,0.53174 0.56934,0 1.1011,-0.13965 0.53711,-0.13965 1.0635,-0.41894 v 0.93457 q -0.53174,0.22559 -1.0903,0.34375 -0.55859,0.11816 -1.1333,0.11816 -1.4395,0 -2.2827,-0.83789 -0.83789,-0.83789 -0.83789,-2.2666 0,-1.4771 0.79492,-2.3418 0.80029,-0.87012 2.1538,-0.87012 1.2139,0 1.9175,0.78418 0.70898,0.77881 0.70898,2.1216 z m -0.98828,-0.29004 q -0.01074,-0.81104 -0.45654,-1.2944 -0.44043,-0.4834 -1.1709,-0.4834 -0.82715,0 -1.3267,0.46729 -0.49414,0.46729 -0.56934,1.3159 z"
         style="font-variant-ligatures:normal;font-variant-caps:normal;font-variant-numeric:normal;font-feature-settings:normal"
         id="path40" />
      <path
         d="m 46.234,10.659 h 2.895 v 0.88086 h -2.895 z"
         style="font-variant-ligatures:normal;font-variant-caps:normal;font-variant-numeric:normal;font-feature-settings:normal"
         id="path42" />
      <path
         d="m 54.661,11.034 q 0,-1.0742 -0.4458,-1.665 -0.44043,-0.59082 -1.2407,-0.59082 -0.79492,0 -1.2407,0.59082 -0.44043,0.59082 -0.44043,1.665 0,1.0688 0.44043,1.6597 0.4458,0.59082 1.2407,0.59082 0.80029,0 1.2407,-0.59082 0.4458,-0.59082 0.4458,-1.6597 z m 0.98828,2.3311 q 0,1.5361 -0.68213,2.2827 -0.68213,0.75195 -2.0894,0.75195 -0.521,0 -0.98291,-0.08057 -0.46191,-0.0752 -0.89697,-0.23633 v -0.96143 q 0.43506,0.23633 0.85938,0.34912 0.42432,0.11279 0.86475,0.11279 0.97217,0 1.4556,-0.51025 0.4834,-0.50488 0.4834,-1.5308 v -0.48877 q -0.30615,0.53174 -0.78418,0.79492 -0.47803,0.26318 -1.144,0.26318 -1.1064,0 -1.7832,-0.84326 -0.67676,-0.84326 -0.67676,-2.2344 0,-1.3965 0.67676,-2.2397 0.67676,-0.84326 1.7832,-0.84326 0.66602,0 1.144,0.26318 0.47803,0.26318 0.78418,0.79492 V 8.096 h 0.98828 z"
         style="font-variant-ligatures:normal;font-variant-caps:normal;font-variant-numeric:normal;font-feature-settings:normal"
         id="path44" />
      <path
         d="m 60.419,11.088 q -1.1978,0 -1.6597,0.27393 -0.4619,0.27393 -0.46191,0.93457 0,0.52637 0.34375,0.83789 0.34912,0.30615 0.94531,0.30615 0.82178,0 1.3159,-0.58008 0.49951,-0.58545 0.49951,-1.5522 v -0.22022 z m 1.9712,-0.4082 v 3.4321 h -0.98828 v -0.91309 q -0.33838,0.54785 -0.84326,0.81104 -0.50488,0.25781 -1.2354,0.25781 -0.92383,0 -1.4717,-0.51562 -0.54248,-0.521 -0.54248,-1.3911 0,-1.0151 0.67676,-1.5308 0.68213,-0.51562 2.0303,-0.51562 h 1.3857 v -0.09668 q 0,-0.68213 -0.45117,-1.0527 -0.4458,-0.37598 -1.2568,-0.37598 -0.51562,0 -1.0044,0.12354 -0.48877,0.12354 -0.93994,0.37061 V 8.37023 q 0.54248,-0.20947 1.0527,-0.31152 0.51025,-0.10742 0.99365,-0.10742 1.3052,0 1.9497,0.67676 0.6445,0.67676 0.64453,2.0518 z"
         style="font-variant-ligatures:normal;font-variant-caps:normal;font-variant-numeric:normal;font-feature-settings:normal"
         id="path46" />
      <path
         d="m 64.426,5.7547 h 0.98828 v 8.3574 H 64.426 Z"
         style="font-variant-ligatures:normal;font-variant-caps:normal;font-variant-numeric:normal;font-feature-settings:normal"
         id="path48" />
      <path
         d="m 70.216,11.088 q -1.1978,0 -1.6597,0.27393 -0.4619,0.27393 -0.46191,0.93457 0,0.52637 0.34375,0.83789 0.34912,0.30615 0.94531,0.30615 0.82178,0 1.3159,-0.58008 0.49951,-0.58545 0.49951,-1.5522 v -0.22022 z m 1.9712,-0.4082 v 3.4321 h -0.98828 v -0.91309 q -0.33838,0.54785 -0.84326,0.81104 -0.50488,0.25781 -1.2354,0.25781 -0.92383,0 -1.4717,-0.51562 -0.54248,-0.521 -0.54248,-1.3911 0,-1.0151 0.67676,-1.5308 0.68213,-0.51562 2.0303,-0.51562 h 1.3857 v -0.09668 q 0,-0.68213 -0.45117,-1.0527 -0.4458,-0.37598 -1.2568,-0.37598 -0.51562,0 -1.0044,0.12354 -0.48877,0.12354 -0.93994,0.37061 V 8.37023 q 0.54248,-0.20947 1.0527,-0.31152 0.51025,-0.10742 0.99365,-0.10742 1.3052,0 1.9497,0.67676 0.6445,0.67676 0.64453,2.0518 z"
         style="font-variant-ligatures:normal;font-variant-caps:normal;font-variant-numeric:normal;font-feature-settings:normal"
         id="path50" />
      <path
         d="m 79.223,8.0965 -2.1753,2.9272 2.2881,3.0884 h -1.1655 l -1.751,-2.3633 -1.751,2.3633 h -1.1655 l 2.3364,-3.1475 -2.1377,-2.8682 h 1.1655 l 1.5952,2.1431 1.5952,-2.1431 z"
         style="font-variant-ligatures:normal;font-variant-caps:normal;font-variant-numeric:normal;font-feature-settings:normal"
         id="path52" />
      <path
         d="m 83.235,14.671 q -0.41894,1.0742 -0.81641,1.4019 -0.39747,0.3277 -1.0635,0.32764 h -0.78955 v -0.82715 h 0.58008 q 0.4082,0 0.63379,-0.19336 0.22559,-0.19336 0.49951,-0.91309 l 0.17725,-0.45117 -2.4331,-5.9189 h 1.0474 l 1.8799,4.7051 1.8799,-4.7051 h 1.0474 z"
         style="font-variant-ligatures:normal;font-variant-caps:normal;font-variant-numeric:normal;font-feature-settings:normal"
         id="path54" />
    </g>
    <g
       fill="#ffffff"
       aria-label="ansible-galaxy"
       id="g86">
      <path
         d="m 10.162,11.088 q -1.1978,0 -1.6597,0.27393 -0.46191,0.27393 -0.46191,0.93457 0,0.52637 0.34375,0.83789 0.34912,0.30615 0.94531,0.30615 0.82178,0 1.3159,-0.58008 0.49951,-0.58545 0.49951,-1.5522 v -0.22022 z m 1.9712,-0.4082 v 3.4321 h -0.98828 v -0.91309 q -0.33838,0.54785 -0.84326,0.81104 -0.50488,0.25781 -1.2354,0.25781 -0.92383,0 -1.4717,-0.51562 -0.54248,-0.521 -0.54248,-1.3911 0,-1.0151 0.67676,-1.5308 0.68213,-0.51562 2.0303,-0.51562 h 1.3857 v -0.09668 q 0,-0.68213 -0.45117,-1.0527 -0.4458,-0.37598 -1.2568,-0.37598 -0.51562,0 -1.0044,0.12354 Q 7.9437,9.03624 7.49253,9.28331 V 8.37022 Q 8.03501,8.16075 8.54523,8.0587 9.05548,7.95128 9.53888,7.95128 q 1.3052,0 1.9497,0.67676 0.6445,0.67676 0.64453,2.0518 z"
         style="font-variant-ligatures:normal;font-variant-caps:normal;font-variant-numeric:normal;font-feature-settings:normal"
         id="path58" />
      <path
         d="m 19.169,10.481 v 3.6309 h -0.98828 v -3.5986 q 0,-0.854 -0.33301,-1.2783 -0.33301,-0.4243 -0.99902,-0.42432 -0.80029,0 -1.2622,0.51025 -0.46191,0.51025 -0.46191,1.3911 v 3.3999 h -0.99365 v -6.0156 h 0.99365 V 9.0309 q 0.35449,-0.54248 0.83252,-0.81104 0.4834,-0.26855 1.1118,-0.26855 1.0366,0 1.5684,0.64453 0.53174,0.63916 0.53174,1.8853 z"
         style="font-variant-ligatures:normal;font-variant-caps:normal;font-variant-numeric:normal;font-feature-settings:normal"
         id="path60" />
      <path
         d="M 24.975,8.2737 V 9.20827 Q 24.55606,8.99343 24.10488,8.886 23.6537,8.77857 23.17031,8.77858 q -0.73584,0 -1.1064,0.22559 -0.36523,0.22559 -0.36523,0.67676 0,0.34375 0.26318,0.54248 0.26318,0.19336 1.0581,0.3706 l 0.33838,0.0752 q 1.0527,0.22559 1.4932,0.63916 0.4458,0.4082 0.4458,1.144 0,0.83789 -0.66602,1.3267 -0.66064,0.48877 -1.8208,0.48877 -0.4834,0 -1.0098,-0.09668 -0.521,-0.09131 -1.1011,-0.2793 v -1.0205 q 0.54785,0.28467 1.0796,0.42969 0.53174,0.13965 1.0527,0.13965 0.69824,0 1.0742,-0.23633 0.37598,-0.2417 0.37598,-0.67676 0,-0.40283 -0.27393,-0.61768 -0.26855,-0.21484 -1.187,-0.41357 l -0.34375,-0.08057 q -0.91846,-0.19336 -1.3267,-0.59082 -0.4082,-0.40283 -0.4082,-1.1011 0,-0.84863 0.60156,-1.3105 0.60156,-0.46191 1.708,-0.46191 0.54785,0 1.0312,0.080566 0.4834,0.080566 0.8916,0.2417 z"
         style="font-variant-ligatures:normal;font-variant-caps:normal;font-variant-numeric:normal;font-feature-settings:normal"
         id="path62" />
      <path
         d="m 26.871,8.0965 h 0.98828 v 6.0156 H 26.871 Z m 0,-2.3418 h 0.98828 V 7.0062 H 26.871 Z"
         style="font-variant-ligatures:normal;font-variant-caps:normal;font-variant-numeric:normal;font-feature-settings:normal"
         id="path64" />
      <path
         d="m 34.246,11.11 q 0,-1.0903 -0.45117,-1.708 -0.4458,-0.62305 -1.23,-0.62305 -0.78418,0 -1.2354,0.62305 -0.4458,0.61768 -0.4458,1.708 0,1.09032 0.4458,1.7134 0.45117,0.61768 1.2354,0.61768 0.78418,0 1.23,-0.61768 Q 34.246,12.20035 34.246,11.11 Z M 30.8837,9.0099 q 0.31152,-0.53711 0.78418,-0.79492 0.47803,-0.26318 1.1387,-0.26318 1.0957,0 1.7778,0.87012 0.6875,0.87012 0.6875,2.2881 0,1.418 -0.6875,2.2881 -0.68213,0.87012 -1.7778,0.87012 -0.66064,0 -1.1387,-0.25781 -0.47266,-0.26318 -0.78418,-0.80029 v 0.90234 h -0.99365 v -8.3574 h 0.99365 z"
         style="font-variant-ligatures:normal;font-variant-caps:normal;font-variant-numeric:normal;font-feature-settings:normal"
         id="path66" />
      <path
         d="m 36.91,5.7547 h 0.98828 v 8.3574 H 36.91 Z"
         style="font-variant-ligatures:normal;font-variant-caps:normal;font-variant-numeric:normal;font-feature-settings:normal"
         id="path68" />
      <path
         d="m 45.111,10.857 v 0.4834 h -4.5439 q 0.06445,1.0205 0.6123,1.5576 0.55322,0.53174 1.5361,0.53174 0.56934,0 1.1011,-0.13965 0.53711,-0.13965 1.0635,-0.41894 v 0.93457 q -0.53174,0.22559 -1.0903,0.34375 -0.55859,0.11816 -1.1333,0.11816 -1.4395,0 -2.2827,-0.83789 -0.83789,-0.83789 -0.83789,-2.2666 0,-1.4771 0.79492,-2.3418 0.80029,-0.87012 2.1538,-0.87012 1.2139,0 1.9175,0.78418 0.70898,0.77881 0.70898,2.1216 z m -0.98828,-0.29004 q -0.01074,-0.81104 -0.45654,-1.2944 -0.44043,-0.4834 -1.1709,-0.4834 -0.82715,0 -1.3267,0.46729 -0.49414,0.46729 -0.56934,1.3159 z"
         style="font-variant-ligatures:normal;font-variant-caps:normal;font-variant-numeric:normal;font-feature-settings:normal"
         id="path70" />
      <path
         d="m 46.234,10.659 h 2.895 v 0.88086 h -2.895 z"
         style="font-variant-ligatures:normal;font-variant-caps:normal;font-variant-numeric:normal;font-feature-settings:normal"
         id="path72" />
      <path
         d="m 54.661,11.034 q 0,-1.0742 -0.4458,-1.665 -0.44043,-0.59082 -1.2407,-0.59082 -0.79492,0 -1.2407,0.59082 -0.44043,0.59082 -0.44043,1.665 0,1.0688 0.44043,1.6597 0.4458,0.59082 1.2407,0.59082 0.80029,0 1.2407,-0.59082 0.4458,-0.59082 0.4458,-1.6597 z m 0.98828,2.3311 q 0,1.5361 -0.68213,2.2827 -0.68213,0.75195 -2.0894,0.75195 -0.521,0 -0.98291,-0.08057 -0.46191,-0.0752 -0.89697,-0.23633 v -0.96143 q 0.43506,0.23633 0.85938,0.34912 0.42432,0.11279 0.86475,0.11279 0.97217,0 1.4556,-0.51025 0.4834,-0.50488 0.4834,-1.5308 v -0.48877 q -0.30615,0.53174 -0.78418,0.79492 -0.47803,0.26318 -1.144,0.26318 -1.1064,0 -1.7832,-0.84326 -0.67676,-0.84326 -0.67676,-2.2344 0,-1.3965 0.67676,-2.2397 0.67676,-0.84326 1.7832,-0.84326 0.66602,0 1.144,0.26318 0.47803,0.26318 0.78418,0.79492 V 8.096 h 0.98828 z"
         style="font-variant-ligatures:normal;font-variant-caps:normal;font-variant-numeric:normal;font-feature-settings:normal"
         id="path74" />
      <path
         d="m 60.419,11.088 q -1.1978,0 -1.6597,0.27393 -0.4619,0.27393 -0.46191,0.93457 0,0.52637 0.34375,0.83789 0.34912,0.30615 0.94531,0.30615 0.82178,0 1.3159,-0.58008 0.49951,-0.58545 0.49951,-1.5522 v -0.22022 z m 1.9712,-0.4082 v 3.4321 h -0.98828 v -0.91309 q -0.33838,0.54785 -0.84326,0.81104 -0.50488,0.25781 -1.2354,0.25781 -0.92383,0 -1.4717,-0.51562 -0.54248,-0.521 -0.54248,-1.3911 0,-1.0151 0.67676,-1.5308 0.68213,-0.51562 2.0303,-0.51562 h 1.3857 v -0.09668 q 0,-0.68213 -0.45117,-1.0527 -0.4458,-0.37598 -1.2568,-0.37598 -0.51562,0 -1.0044,0.12354 -0.48877,0.12354 -0.93994,0.37061 V 8.37023 q 0.54248,-0.20947 1.0527,-0.31152 0.51025,-0.10742 0.99365,-0.10742 1.3052,0 1.9497,0.67676 0.6445,0.67676 0.64453,2.0518 z"
         style="font-variant-ligatures:normal;font-variant-caps:normal;font-variant-numeric:normal;font-feature-settings:normal"
         id="path76" />
      <path
         d="m 64.426,5.7547 h 0.98828 v 8.3574 H 64.426 Z"
         style="font-variant-ligatures:normal;font-variant-caps:normal;font-variant-numeric:normal;font-feature-settings:normal"
         id="path78" />
      <path
         d="m 70.216,11.088 q -1.1978,0 -1.6597,0.27393 -0.4619,0.27393 -0.46191,0.93457 0,0.52637 0.34375,0.83789 0.34912,0.30615 0.94531,0.30615 0.82178,0 1.3159,-0.58008 0.49951,-0.58545 0.49951,-1.5522 v -0.22022 z m 1.9712,-0.4082 v 3.4321 h -0.98828 v -0.91309 q -0.33838,0.54785 -0.84326,0.81104 -0.50488,0.25781 -1.2354,0.25781 -0.92383,0 -1.4717,-0.51562 -0.54248,-0.521 -0.54248,-1.3911 0,-1.0151 0.67676,-1.5308 0.68213,-0.51562 2.0303,-0.51562 h 1.3857 v -0.09668 q 0,-0.68213 -0.45117,-1.0527 -0.4458,-0.37598 -1.2568,-0.37598 -0.51562,0 -1.0044,0.12354 -0.48877,0.12354 -0.93994,0.37061 V 8.37023 q 0.54248,-0.20947 1.0527,-0.31152 0.51025,-0.10742 0.99365,-0.10742 1.3052,0 1.9497,0.67676 0.6445,0.67676 0.64453,2.0518 z"
         style="font-variant-ligatures:normal;font-variant-caps:normal;font-variant-numeric:normal;font-feature-settings:normal"
         id="path80" />
      <path
         d="m 79.223,8.0965 -2.1753,2.9272 2.2881,3.0884 h -1.1655 l -1.751,-2.3633 -1.751,2.3633 h -1.1655 l 2.3364,-3.1475 -2.1377,-2.8682 h 1.1655 l 1.5952,2.1431 1.5952,-2.1431 z"
         style="font-variant-ligatures:normal;font-variant-caps:normal;font-variant-numeric:normal;font-feature-settings:normal"
         id="path82" />
      <path
         d="m 83.235,14.671 q -0.41894,1.0742 -0.81641,1.4019 -0.39747,0.3277 -1.0635,0.32764 h -0.78955 v -0.82715 h 0.58008 q 0.4082,0 0.63379,-0.19336 0.22559,-0.19336 0.49951,-0.91309 l 0.17725,-0.45117 -2.4331,-5.9189 h 1.0474 l 1.8799,4.7051 1.8799,-4.7051 h 1.0474 z"
         style="font-variant-ligatures:normal;font-variant-caps:normal;font-variant-numeric:normal;font-feature-settings:normal"
         id="path84" />
    </g>
    <g
       aria-label="do1jlr.etebase"
       id="text90"
       style="font-size:11px;font-family:'DejaVu Sans', Verdana, Geneva, sans-serif;text-anchor:middle;fill:#010101;fill-opacity:0.66791;stroke-width:0.1;filter:url(#filter923)">
      <path
         d="M 97.454193,9.7370062 V 6.4821234 h 0.988281 v 8.3574216 h -0.988281 v -0.902344 q -0.311523,0.53711 -0.789551,0.800293 -0.472656,0.257813 -1.138672,0.257813 -1.090332,0 -1.777832,-0.870117 -0.682128,-0.870117 -0.682128,-2.288086 0,-1.417969 0.682128,-2.2880861 0.6875,-0.8701172 1.777832,-0.8701172 0.666016,0 1.138672,0.2631836 0.478028,0.2578125 0.789551,0.7949219 z m -3.367676,2.1000978 q 0,1.090332 0.445801,1.713379 0.451172,0.617676 1.235352,0.617676 0.784179,0 1.235351,-0.617676 0.451172,-0.623047 0.451172,-1.713379 0,-1.090332 -0.451172,-1.708008 -0.451172,-0.6230468 -1.235351,-0.6230468 -0.78418,0 -1.235352,0.6230468 -0.445801,0.617676 -0.445801,1.708008 z"
         style="text-anchor:start"
         id="path335" />
      <path
         d="m 102.80917,9.5167913 q -0.79492,0 -1.25683,0.6230467 -0.46192,0.617676 -0.46192,1.697266 0,1.07959 0.45655,1.702637 0.46191,0.617675 1.2622,0.617675 0.78955,0 1.25147,-0.623047 0.46191,-0.623046 0.46191,-1.697265 0,-1.068848 -0.46191,-1.691895 -0.46192,-0.6284177 -1.25147,-0.6284177 z m 0,-0.8378906 q 1.28907,0 2.02491,0.8378906 0.73584,0.8378907 0.73584,2.3203127 0,1.477051 -0.73584,2.320312 -0.73584,0.837891 -2.02491,0.837891 -1.29443,0 -2.03027,-0.837891 -0.73047,-0.843261 -0.73047,-2.320312 0,-1.482422 0.73047,-2.3203127 0.73584,-0.8378906 2.03027,-0.8378906 z"
         style="text-anchor:start"
         id="path337" />
      <path
         d="m 107.53574,13.926459 h 1.77246 V 7.8087835 l -1.92823,0.3867188 V 7.207221 l 1.91748,-0.3867187 h 1.08497 v 7.1059567 h 1.77246 v 0.913086 h -4.61914 z"
         style="text-anchor:start"
         id="path339" />
      <path
         d="m 114.20663,8.8239202 h 0.98829 v 6.1230468 q 0,1.149414 -0.44043,1.665039 -0.43506,0.515625 -1.40723,0.515625 h -0.37598 v -0.83789 h 0.26319 q 0.56396,0 0.76806,-0.263184 0.2041,-0.257813 0.2041,-1.07959 z m 0,-2.3417968 h 0.98829 v 1.2514648 h -0.98829 z"
         style="text-anchor:start"
         id="path341" />
      <path
         d="m 117.26279,6.4821234 h 0.98828 v 8.3574216 h -0.98828 z"
         style="text-anchor:start"
         id="path343" />
      <path
         d="m 123.80478,9.7477484 q -0.1665,-0.09668 -0.36524,-0.1396485 -0.19335,-0.04834 -0.42968,-0.04834 -0.83789,0 -1.28907,0.5478519 -0.4458,0.54248 -0.4458,1.562988 v 3.168945 h -0.99365 V 8.8239202 h 0.99365 v 0.9345704 q 0.31153,-0.5478516 0.81104,-0.8110352 0.49951,-0.2685547 1.21387,-0.2685547 0.10205,0 0.22558,0.016113 0.12354,0.010742 0.27393,0.037598 z"
         style="text-anchor:start"
         id="path345" />
      <path
         d="m 123.97128,13.475287 h 1.1333 v 1.364258 h -1.1333 z"
         style="text-anchor:start"
         id="path347" />
      <path
         d="m 132.47372,11.584662 v 0.483399 h -4.54394 q 0.0645,1.020508 0.6123,1.557617 0.55323,0.531738 1.53614,0.531738 0.56933,0 1.10107,-0.139648 0.53711,-0.139649 1.06348,-0.418945 v 0.93457 q -0.53174,0.225586 -1.09033,0.34375 -0.5586,0.118164 -1.13331,0.118164 -1.43945,0 -2.28271,-0.837891 -0.83789,-0.83789 -0.83789,-2.266601 0,-1.477051 0.79492,-2.3417971 0.80029,-0.8701172 2.15381,-0.8701172 1.21387,0 1.91748,0.7841797 0.70898,0.7788086 0.70898,2.1215816 z m -0.98828,-0.290039 q -0.0107,-0.811035 -0.45654,-1.294433 -0.44043,-0.4833987 -1.1709,-0.4833987 -0.82715,0 -1.32666,0.4672852 -0.49414,0.4672855 -0.56933,1.3159175 z"
         style="text-anchor:start"
         id="path349" />
      <path
         d="m 135.07333,7.1159124 v 1.7080078 h 2.03565 v 0.7680665 h -2.03565 v 3.2656253 q 0,0.735839 0.19873,0.945312 0.20411,0.209473 0.82178,0.209473 h 1.01514 v 0.827148 h -1.01514 q -1.14404,0 -1.5791,-0.424316 -0.43506,-0.429688 -0.43506,-1.557617 V 9.5919867 h -0.7251 V 8.8239202 h 0.7251 V 7.1159124 Z"
         style="text-anchor:start"
         id="path351" />
      <path
         d="m 143.55429,11.584662 v 0.483399 h -4.54394 q 0.0645,1.020508 0.6123,1.557617 0.55322,0.531738 1.53613,0.531738 0.56934,0 1.10108,-0.139648 0.53711,-0.139649 1.06347,-0.418945 v 0.93457 q -0.53173,0.225586 -1.09033,0.34375 -0.55859,0.118164 -1.1333,0.118164 -1.43945,0 -2.28271,-0.837891 -0.83789,-0.83789 -0.83789,-2.266601 0,-1.477051 0.79492,-2.3417971 0.80029,-0.8701172 2.15381,-0.8701172 1.21386,0 1.91748,0.7841797 0.70898,0.7788086 0.70898,2.1215816 z m -0.98828,-0.290039 q -0.0107,-0.811035 -0.45654,-1.294433 -0.44043,-0.4833987 -1.1709,-0.4833987 -0.82715,0 -1.32666,0.4672852 -0.49414,0.4672855 -0.56934,1.3159175 z"
         style="text-anchor:start"
         id="path353" />
      <path
         d="m 149.49472,11.837104 q 0,-1.090332 -0.45117,-1.708008 -0.4458,-0.6230468 -1.22998,-0.6230468 -0.78418,0 -1.23535,0.6230468 -0.4458,0.617676 -0.4458,1.708008 0,1.090332 0.4458,1.713379 0.45117,0.617676 1.23535,0.617676 0.78418,0 1.22998,-0.617676 0.45117,-0.623047 0.45117,-1.713379 z m -3.3623,-2.1000978 q 0.31152,-0.5371094 0.78418,-0.7949219 0.47802,-0.2631836 1.13867,-0.2631836 1.0957,0 1.77783,0.8701172 0.6875,0.8701171 0.6875,2.2880861 0,1.417969 -0.6875,2.288086 -0.68213,0.870117 -1.77783,0.870117 -0.66065,0 -1.13867,-0.257813 -0.47266,-0.263183 -0.78418,-0.800293 v 0.902344 h -0.99366 V 6.4821234 h 0.99366 z"
         style="text-anchor:start"
         id="path355" />
      <path
         d="m 154.89267,11.815619 q -1.19775,0 -1.65967,0.273926 -0.46191,0.273926 -0.46191,0.934571 0,0.526367 0.34375,0.83789 0.34912,0.306153 0.94531,0.306153 0.82178,0 1.31592,-0.580079 0.49951,-0.585449 0.49951,-1.552246 v -0.220215 z m 1.97119,-0.408203 v 3.432129 h -0.98828 v -0.913086 q -0.33838,0.547852 -0.84326,0.811035 -0.50488,0.257813 -1.23535,0.257813 -0.92383,0 -1.47168,-0.515625 -0.54248,-0.520996 -0.54248,-1.391113 0,-1.015137 0.67675,-1.530762 0.68213,-0.515625 2.03028,-0.515625 h 1.38574 v -0.09668 q 0,-0.682129 -0.45117,-1.0527341 -0.4458,-0.3759766 -1.25684,-0.3759766 -0.51562,0 -1.00439,0.1235352 -0.48877,0.1235352 -0.93994,0.3706055 V 9.097846 q 0.54248,-0.2094726 1.05273,-0.3115234 0.51025,-0.1074219 0.99365,-0.1074219 1.30518,0 1.94971,0.6767578 0.64453,0.6767575 0.64453,2.0517575 z"
         style="text-anchor:start"
         id="path357" />
      <path
         d="m 162.73447,9.0011663 v 0.9345704 q -0.41895,-0.2148438 -0.87012,-0.3222657 -0.45117,-0.1074218 -0.93457,-0.1074218 -0.73584,0 -1.10645,0.2255859 -0.36523,0.2255859 -0.36523,0.6767579 0,0.34375 0.26318,0.54248 0.26319,0.19336 1.05811,0.370606 l 0.33838,0.0752 q 1.05273,0.225586 1.49316,0.63916 0.4458,0.408203 0.4458,1.144043 0,0.837891 -0.66601,1.32666 -0.66065,0.48877 -1.8208,0.48877 -0.4834,0 -1.00977,-0.09668 -0.521,-0.09131 -1.10107,-0.279297 v -1.020507 q 0.54785,0.284668 1.07959,0.429687 0.53173,0.139649 1.05273,0.139649 0.69824,0 1.07422,-0.236329 0.37598,-0.241699 0.37598,-0.676757 0,-0.402832 -0.27393,-0.617676 -0.26856,-0.214844 -1.18701,-0.413574 l -0.34375,-0.08057 q -0.91846,-0.193359 -1.32666,-0.59082 -0.40821,-0.402832 -0.40821,-1.101074 0,-0.8486332 0.60157,-1.3105472 0.60156,-0.4619141 1.708,-0.4619141 0.54786,0 1.03125,0.080566 0.4834,0.080566 0.89161,0.2416992 z"
         style="text-anchor:start"
         id="path359" />
      <path
         d="m 169.77597,11.584662 v 0.483399 h -4.54394 q 0.0644,1.020508 0.6123,1.557617 0.55322,0.531738 1.53613,0.531738 0.56934,0 1.10108,-0.139648 0.53711,-0.139649 1.06347,-0.418945 v 0.93457 q -0.53173,0.225586 -1.09033,0.34375 -0.55859,0.118164 -1.1333,0.118164 -1.43945,0 -2.28271,-0.837891 -0.83789,-0.83789 -0.83789,-2.266601 0,-1.477051 0.79492,-2.3417971 0.80029,-0.8701172 2.15381,-0.8701172 1.21386,0 1.91748,0.7841797 0.70898,0.7788086 0.70898,2.1215816 z m -0.98828,-0.290039 q -0.0107,-0.811035 -0.45654,-1.294433 -0.44043,-0.4833987 -1.1709,-0.4833987 -0.82715,0 -1.32666,0.4672852 -0.49414,0.4672855 -0.56934,1.3159175 z"
         style="text-anchor:start"
         id="path361" />
    </g>
    <g
       aria-label="do1jlr.etebase"
       id="text94"
       style="font-size:11px;line-height:1.25;font-family:'DejaVu Sans', Verdana, Geneva, sans-serif;letter-spacing:0px;word-spacing:0px;fill:#ffffff">
      <path
         d="M 97.454193,9.1889648 V 5.934082 h 0.988281 v 8.357422 H 97.454193 V 13.38916 q -0.311523,0.53711 -0.789551,0.800293 -0.472656,0.257813 -1.138672,0.257813 -1.090332,0 -1.777832,-0.870118 -0.682128,-0.870117 -0.682128,-2.288085 0,-1.4179692 0.682128,-2.2880864 0.6875,-0.8701172 1.777832,-0.8701172 0.666016,0 1.138672,0.2631836 0.478028,0.2578125 0.789551,0.7949218 z m -3.367676,2.1000982 q 0,1.090332 0.445801,1.713378 0.451172,0.617676 1.235352,0.617676 0.784179,0 1.235351,-0.617676 0.451172,-0.623046 0.451172,-1.713378 0,-1.090333 -0.451172,-1.7080083 -0.451172,-0.6230469 -1.235351,-0.6230469 -0.78418,0 -1.235352,0.6230469 -0.445801,0.6176753 -0.445801,1.7080083 z"
         id="path364" />
      <path
         d="m 102.80917,8.96875 q -0.79492,0 -1.25683,0.6230469 -0.46192,0.6176761 -0.46192,1.6972661 0,1.079589 0.45655,1.702636 0.46191,0.617676 1.2622,0.617676 0.78955,0 1.25147,-0.623047 0.46191,-0.623047 0.46191,-1.697265 0,-1.068848 -0.46191,-1.691895 -0.46192,-0.628418 -1.25147,-0.628418 z m 0,-0.8378906 q 1.28907,0 2.02491,0.8378906 0.73584,0.8378906 0.73584,2.320313 0,1.47705 -0.73584,2.320312 -0.73584,0.837891 -2.02491,0.837891 -1.29443,0 -2.03027,-0.837891 -0.73047,-0.843262 -0.73047,-2.320312 0,-1.4824224 0.73047,-2.320313 0.73584,-0.8378906 2.03027,-0.8378906 z"
         id="path366" />
      <path
         d="m 107.53574,13.378418 h 1.77246 V 7.2607422 l -1.92823,0.3867187 V 6.6591797 l 1.91748,-0.3867188 h 1.08497 v 7.1059571 h 1.77246 v 0.913086 h -4.61914 z"
         id="path368" />
      <path
         d="m 114.20663,8.2758789 h 0.98829 v 6.1230471 q 0,1.149414 -0.44043,1.665039 -0.43506,0.515625 -1.40723,0.515625 h -0.37598 v -0.837891 h 0.26319 q 0.56396,0 0.76806,-0.263183 0.2041,-0.257813 0.2041,-1.07959 z m 0,-2.3417969 h 0.98829 v 1.2514649 h -0.98829 z"
         id="path370" />
      <path
         d="m 117.26279,5.934082 h 0.98828 v 8.357422 h -0.98828 z"
         id="path372" />
      <path
         d="m 123.80478,9.199707 q -0.1665,-0.09668 -0.36524,-0.1396484 -0.19335,-0.04834 -0.42968,-0.04834 -0.83789,0 -1.28907,0.5478515 -0.4458,0.5424807 -0.4458,1.5629887 v 3.168945 h -0.99365 V 8.2758789 h 0.99365 v 0.9345703 q 0.31153,-0.5478515 0.81104,-0.8110351 0.49951,-0.2685547 1.21387,-0.2685547 0.10205,0 0.22558,0.016113 0.12354,0.010742 0.27393,0.037598 z"
         id="path374" />
      <path
         d="m 123.97128,12.927246 h 1.1333 v 1.364258 h -1.1333 z"
         id="path376" />
      <path
         d="m 132.47372,11.036621 v 0.483399 h -4.54394 q 0.0645,1.020507 0.6123,1.557617 0.55323,0.531738 1.53614,0.531738 0.56933,0 1.10107,-0.139648 0.53711,-0.139649 1.06348,-0.418946 v 0.934571 q -0.53174,0.225586 -1.09033,0.34375 -0.5586,0.118164 -1.13331,0.118164 -1.43945,0 -2.28271,-0.837891 -0.83789,-0.837891 -0.83789,-2.266602 0,-1.4770503 0.79492,-2.3417964 0.80029,-0.8701172 2.15381,-0.8701172 1.21387,0 1.91748,0.7841797 0.70898,0.7788086 0.70898,2.1215819 z m -0.98828,-0.290039 Q 131.4747,9.9355469 131.0289,9.4521484 130.58847,8.96875 129.858,8.96875 q -0.82715,0 -1.32666,0.4672852 -0.49414,0.4672851 -0.56933,1.3159178 z"
         id="path378" />
      <path
         d="m 135.07333,6.5678711 v 1.7080078 h 2.03565 v 0.7680664 h -2.03565 V 12.30957 q 0,0.73584 0.19873,0.945313 0.20411,0.209472 0.82178,0.209472 h 1.01514 v 0.827149 h -1.01514 q -1.14404,0 -1.5791,-0.424316 -0.43506,-0.429688 -0.43506,-1.557618 V 9.0439453 h -0.7251 V 8.2758789 h 0.7251 V 6.5678711 Z"
         id="path380" />
      <path
         d="m 143.55429,11.036621 v 0.483399 h -4.54394 q 0.0645,1.020507 0.6123,1.557617 0.55322,0.531738 1.53613,0.531738 0.56934,0 1.10108,-0.139648 0.53711,-0.139649 1.06347,-0.418946 v 0.934571 q -0.53173,0.225586 -1.09033,0.34375 -0.55859,0.118164 -1.1333,0.118164 -1.43945,0 -2.28271,-0.837891 -0.83789,-0.837891 -0.83789,-2.266602 0,-1.4770503 0.79492,-2.3417964 0.80029,-0.8701172 2.15381,-0.8701172 1.21386,0 1.91748,0.7841797 0.70898,0.7788086 0.70898,2.1215819 z m -0.98828,-0.290039 q -0.0107,-0.8110351 -0.45654,-1.2944336 -0.44043,-0.4833984 -1.1709,-0.4833984 -0.82715,0 -1.32666,0.4672852 -0.49414,0.4672851 -0.56934,1.3159178 z"
         id="path382" />
      <path
         d="m 149.49472,11.289063 q 0,-1.090333 -0.45117,-1.7080083 -0.4458,-0.6230469 -1.22998,-0.6230469 -0.78418,0 -1.23535,0.6230469 -0.4458,0.6176753 -0.4458,1.7080083 0,1.090332 0.4458,1.713378 0.45117,0.617676 1.23535,0.617676 0.78418,0 1.22998,-0.617676 0.45117,-0.623046 0.45117,-1.713378 z m -3.3623,-2.1000982 q 0.31152,-0.5371093 0.78418,-0.7949218 0.47802,-0.2631836 1.13867,-0.2631836 1.0957,0 1.77783,0.8701172 0.6875,0.8701172 0.6875,2.2880864 0,1.417968 -0.6875,2.288085 -0.68213,0.870118 -1.77783,0.870118 -0.66065,0 -1.13867,-0.257813 -0.47266,-0.263183 -0.78418,-0.800293 v 0.902344 h -0.99366 V 5.934082 h 0.99366 z"
         id="path384" />
      <path
         d="m 154.89267,11.267578 q -1.19775,0 -1.65967,0.273926 -0.46191,0.273926 -0.46191,0.93457 0,0.526367 0.34375,0.837891 0.34912,0.306152 0.94531,0.306152 0.82178,0 1.31592,-0.580078 0.49951,-0.585449 0.49951,-1.552246 v -0.220215 z m 1.97119,-0.408203 v 3.432129 h -0.98828 v -0.913086 q -0.33838,0.547852 -0.84326,0.811035 -0.50488,0.257813 -1.23535,0.257813 -0.92383,0 -1.47168,-0.515625 -0.54248,-0.520996 -0.54248,-1.391114 0,-1.015136 0.67675,-1.530761 0.68213,-0.515625 2.03028,-0.515625 h 1.38574 v -0.09668 q 0,-0.682129 -0.45117,-1.0527344 -0.4458,-0.3759766 -1.25684,-0.3759766 -0.51562,0 -1.00439,0.1235352 -0.48877,0.1235351 -0.93994,0.3706054 V 8.5498047 q 0.54248,-0.2094727 1.05273,-0.3115234 0.51025,-0.1074219 0.99365,-0.1074219 1.30518,0 1.94971,0.6767578 0.64453,0.6767578 0.64453,2.0517578 z"
         id="path386" />
      <path
         d="m 162.73447,8.453125 v 0.9345703 q -0.41895,-0.2148437 -0.87012,-0.3222656 -0.45117,-0.1074219 -0.93457,-0.1074219 -0.73584,0 -1.10645,0.225586 -0.36523,0.2255859 -0.36523,0.6767578 0,0.3437504 0.26318,0.5424804 0.26319,0.193359 1.05811,0.370606 l 0.33838,0.07519 q 1.05273,0.225586 1.49316,0.63916 0.4458,0.408203 0.4458,1.144043 0,0.837891 -0.66601,1.32666 -0.66065,0.48877 -1.8208,0.48877 -0.4834,0 -1.00977,-0.09668 -0.521,-0.09131 -1.10107,-0.279297 v -1.020508 q 0.54785,0.284668 1.07959,0.429688 0.53173,0.139648 1.05273,0.139648 0.69824,0 1.07422,-0.236328 0.37598,-0.241699 0.37598,-0.676758 0,-0.402832 -0.27393,-0.617676 -0.26856,-0.214843 -1.18701,-0.413574 l -0.34375,-0.08057 q -0.91846,-0.19336 -1.32666,-0.59082 -0.40821,-0.402832 -0.40821,-1.1010747 0,-0.8486328 0.60157,-1.3105469 0.60156,-0.461914 1.708,-0.461914 0.54786,0 1.03125,0.080566 0.4834,0.080566 0.89161,0.2416992 z"
         id="path388" />
      <path
         d="m 169.77597,11.036621 v 0.483399 h -4.54394 q 0.0644,1.020507 0.6123,1.557617 0.55322,0.531738 1.53613,0.531738 0.56934,0 1.10108,-0.139648 0.53711,-0.139649 1.06347,-0.418946 v 0.934571 q -0.53173,0.225586 -1.09033,0.34375 -0.55859,0.118164 -1.1333,0.118164 -1.43945,0 -2.28271,-0.837891 -0.83789,-0.837891 -0.83789,-2.266602 0,-1.4770503 0.79492,-2.3417964 0.80029,-0.8701172 2.15381,-0.8701172 1.21386,0 1.91748,0.7841797 0.70898,0.7788086 0.70898,2.1215819 z m -0.98828,-0.290039 q -0.0107,-0.8110351 -0.45654,-1.2944336 -0.44043,-0.4833984 -1.1709,-0.4833984 -0.82715,0 -1.32666,0.4672852 -0.49414,0.4672851 -0.56934,1.3159178 z"
         id="path390" />
    </g>
  </g>
</svg>
